STARTFONT 2.1
FONT -JDECW-Gothic-Medium-R-Normal--11-80-100-100-M-110-JISX0208.1983-1.3
SIZE 8 100 100
FONTBOUNDINGBOX 12 12 0 -2

STARTPROPERTIES 26
FONTNAME_REGISTRY ""
FAMILY_NAME "Gothic"
FOUNDRY "JDECW"
WEIGHT_NAME "Medium"
SLANT "R"
SETWIDTH_NAME "Normal"
ADD_STYLE_NAME ""
PIXEL_SIZE 11
POINT_SIZE 80
RESOLUTION_X 100
RESOLUTION_Y 100
SPACING "M"
AVERAGE_WIDTH 110
CHARSET_REGISTRY "JISX0208.1983"
CHARSET_ENCODING "1"
DEVICE_FONT_NAME "Gothic-JISX0208.1983-1"
CHARSET_COLLECTIONS "JISX0208.1983 1"
FULL_NAME "Gothic-JISX0208.1983-1"
COPYRIGHT "Copyright (c) 1990 1991 TYPEBANK, Digital Equipment Corporation Japan"
CAP_HEIGHT 9
X_HEIGHT 6
WEIGHT 10
QUAD_WIDTH 12
DEFAULT_CHAR 41634
FONT_DESCENT 2
FONT_ASCENT 10
ENDPROPERTIES

CHARS 59

STARTCHAR Ca1a2
ENCODING 41378
SWIDTH 1000 0
DWIDTH 12 0
BBX 12 12 0 -2
BITMAP
0000
0080
0040
0020
0000
0000
0000
0000
0000
0000
0000
0000
ENDCHAR

STARTCHAR Ca1a3
ENCODING 41379
SWIDTH 1000 0
DWIDTH 12 0
BBX 12 12 0 -2
BITMAP
0000
00C0
0120
0120
00C0
0000
0000
0000
0000
0000
0000
0000
ENDCHAR

STARTCHAR Ca1a4
ENCODING 41380
SWIDTH 1000 0
DWIDTH 12 0
BBX 12 12 0 -2
BITMAP
0000
0060
0060
0020
0040
0000
0000
0000
0000
0000
0000
0000
ENDCHAR

STARTCHAR Ca1a5
ENCODING 41381
SWIDTH 1000 0
DWIDTH 12 0
BBX 12 12 0 -2
BITMAP
0000
00C0
00C0
0000
0000
0000
0000
0000
0000
0000
0000
0000
ENDCHAR

STARTCHAR Ca1b1
ENCODING 41393
SWIDTH 1000 0
DWIDTH 12 0
BBX 12 12 0 -2
BITMAP
0000
0020
0020
0020
0020
0020
0020
0020
0020
0020
0020
0000
ENDCHAR

STARTCHAR Ca1b2
ENCODING 41394
SWIDTH 1000 0
DWIDTH 12 0
BBX 12 12 0 -2
BITMAP
0000
4000
4000
4000
4000
4000
4000
4000
4000
4000
4000
0000
ENDCHAR

STARTCHAR Ca1bc
ENCODING 41404
SWIDTH 1000 0
DWIDTH 12 0
BBX 12 12 0 -2
BITMAP
0000
0400
0200
0200
0200
0200
0200
0200
0200
0200
0000
0000
ENDCHAR

STARTCHAR Ca1bd
ENCODING 41405
SWIDTH 1000 0
DWIDTH 12 0
BBX 12 12 0 -2
BITMAP
0000
0400
0400
0400
0400
0400
0400
0400
0400
0400
0400
0000
ENDCHAR

STARTCHAR Ca1be
ENCODING 41406
SWIDTH 1000 0
DWIDTH 12 0
BBX 12 12 0 -2
BITMAP
0000
0000
0000
0400
0400
0400
0400
0400
0000
0000
0000
0000
ENDCHAR

STARTCHAR Ca1c1
ENCODING 41409
SWIDTH 1000 0
DWIDTH 12 0
BBX 12 12 0 -2
BITMAP
0000
0200
0400
0400
0400
0200
0100
0100
0100
0200
0000
0000
ENDCHAR

STARTCHAR Ca1c2
ENCODING 41410
SWIDTH 1000 0
DWIDTH 12 0
BBX 12 12 0 -2
BITMAP
0000
0000
0000
0000
7FE0
0000
7FE0
0000
0000
0000
0000
0000
ENDCHAR

STARTCHAR Ca1c3
ENCODING 41411
SWIDTH 1000 0
DWIDTH 12 0
BBX 12 12 0 -2
BITMAP
0000
0000
0000
0000
0000
7FE0
0000
0000
0000
0000
0000
0000
ENDCHAR

STARTCHAR Ca1c4
ENCODING 41412
SWIDTH 1000 0
DWIDTH 12 0
BBX 12 12 0 -2
BITMAP
0000
0600
0600
0000
0000
0600
0600
0000
0000
0600
0600
0000
ENDCHAR

STARTCHAR Ca1c5
ENCODING 41413
SWIDTH 1000 0
DWIDTH 12 0
BBX 12 12 0 -2
BITMAP
0000
0000
0000
0600
0600
0000
0000
0600
0600
0000
0000
0000
ENDCHAR

STARTCHAR Ca1c6
ENCODING 41414
SWIDTH 1000 0
DWIDTH 12 0
BBX 12 12 0 -2
BITMAP
0000
0000
0000
0000
0000
0000
0000
0000
0000
01C0
01A0
0000
ENDCHAR

STARTCHAR Ca1c7
ENCODING 41415
SWIDTH 1000 0
DWIDTH 12 0
BBX 12 12 0 -2
BITMAP
0000
0160
00E0
0000
0000
0000
0000
0000
0000
0000
0000
0000
ENDCHAR

STARTCHAR Ca1c8
ENCODING 41416
SWIDTH 1000 0
DWIDTH 12 0
BBX 12 12 0 -2
BITMAP
0000
0000
0000
0000
0000
0000
01C0
01A0
0000
01C0
01A0
0000
ENDCHAR

STARTCHAR Ca1c9
ENCODING 41417
SWIDTH 1000 0
DWIDTH 12 0
BBX 12 12 0 -2
BITMAP
0000
0160
00E0
0000
0160
00E0
0000
0000
0000
0000
0000
0000
ENDCHAR

STARTCHAR Ca1ca
ENCODING 41418
SWIDTH 1000 0
DWIDTH 12 0
BBX 12 12 0 -2
BITMAP
0000
0000
0000
0000
0000
0000
0000
0000
0F00
30C0
4020
0000
ENDCHAR

STARTCHAR Ca1cb
ENCODING 41419
SWIDTH 1000 0
DWIDTH 12 0
BBX 12 12 0 -2
BITMAP
0000
4020
30C0
0F00
0000
0000
0000
0000
0000
0000
0000
0000
ENDCHAR

STARTCHAR Ca1cc
ENCODING 41420
SWIDTH 1000 0
DWIDTH 12 0
BBX 12 12 0 -2
BITMAP
0000
0000
0000
0000
0000
0000
0000
0000
1F80
2040
4020
0000
ENDCHAR

STARTCHAR Ca1cd
ENCODING 41421
SWIDTH 1000 0
DWIDTH 12 0
BBX 12 12 0 -2
BITMAP
0000
4020
2040
1F80
0000
0000
0000
0000
0000
0000
0000
0000
ENDCHAR

STARTCHAR Ca1ce
ENCODING 41422
SWIDTH 1000 0
DWIDTH 12 0
BBX 12 12 0 -2
BITMAP
0000
0000
0000
0000
0000
0000
0000
0000
7FE0
4020
4020
0000
ENDCHAR

STARTCHAR Ca1cf
ENCODING 41423
SWIDTH 1000 0
DWIDTH 12 0
BBX 12 12 0 -2
BITMAP
0000
4020
4020
7FE0
0000
0000
0000
0000
0000
0000
0000
0000
ENDCHAR

STARTCHAR Ca1d0
ENCODING 41424
SWIDTH 1000 0
DWIDTH 12 0
BBX 12 12 0 -2
BITMAP
0000
0000
0000
0000
0000
0000
0000
0000
0600
39C0
4020
0000
ENDCHAR

STARTCHAR Ca1d1
ENCODING 41425
SWIDTH 1000 0
DWIDTH 12 0
BBX 12 12 0 -2
BITMAP
0000
4020
39C0
0600
0000
0000
0000
0000
0000
0000
0000
0000
ENDCHAR

STARTCHAR Ca1d2
ENCODING 41426
SWIDTH 1000 0
DWIDTH 12 0
BBX 12 12 0 -2
BITMAP
0000
0000
0000
0000
0000
0000
0600
0900
1080
2040
4020
0000
ENDCHAR

STARTCHAR Ca1d3
ENCODING 41427
SWIDTH 1000 0
DWIDTH 12 0
BBX 12 12 0 -2
BITMAP
0000
4020
2040
1080
0900
0600
0000
0000
0000
0000
0000
0000
ENDCHAR

STARTCHAR Ca1d4
ENCODING 41428
SWIDTH 1000 0
DWIDTH 12 0
BBX 12 12 0 -2
BITMAP
0000
0000
0000
0000
0600
0900
1680
2940
50A0
2040
4020
0000
ENDCHAR

STARTCHAR Ca1d5
ENCODING 41429
SWIDTH 1000 0
DWIDTH 12 0
BBX 12 12 0 -2
BITMAP
0000
4020
2040
50A0
2940
1680
0900
0600
0000
0000
0000
0000
ENDCHAR

STARTCHAR Ca1d6
ENCODING 41430
SWIDTH 1000 0
DWIDTH 12 0
BBX 12 12 0 -2
BITMAP
0000
0000
0000
0000
0000
0000
0000
1FE0
0020
0020
0020
0000
ENDCHAR

STARTCHAR Ca1d7
ENCODING 41431
SWIDTH 1000 0
DWIDTH 12 0
BBX 12 12 0 -2
BITMAP
0000
4000
4000
4000
7F80
0000
0000
0000
0000
0000
0000
0000
ENDCHAR

STARTCHAR Ca1d8
ENCODING 41432
SWIDTH 1000 0
DWIDTH 12 0
BBX 12 12 0 -2
BITMAP
0000
0000
0000
0000
0000
0000
1FE0
1020
1FA0
00A0
00E0
0000
ENDCHAR

STARTCHAR Ca1d9
ENCODING 41433
SWIDTH 1000 0
DWIDTH 12 0
BBX 12 12 0 -2
BITMAP
0000
7000
5000
5F80
4080
7F80
0000
0000
0000
0000
0000
0000
ENDCHAR

STARTCHAR Ca1da
ENCODING 41434
SWIDTH 1000 0
DWIDTH 12 0
BBX 12 12 0 -2
BITMAP
0000
0000
0000
0000
0000
0000
0000
0000
7FE0
6060
4020
0000
ENDCHAR

STARTCHAR Ca1db
ENCODING 41435
SWIDTH 1000 0
DWIDTH 12 0
BBX 12 12 0 -2
BITMAP
0000
4020
6060
7FE0
0000
0000
0000
0000
0000
0000
0000
0000
ENDCHAR

STARTCHAR Ca2a2
ENCODING 41634
SWIDTH 1000 0
DWIDTH 12 0
BBX 12 12 0 -2
BITMAP
0000
0000
7F80
4080
4080
4080
4080
4080
4080
7F80
0000
0000
ENDCHAR

STARTCHAR Ca4a1
ENCODING 42145
SWIDTH 1000 0
DWIDTH 12 0
BBX 12 12 0 -2
BITMAP
0000
0000
0400
0780
1C00
07C0
0D20
1520
1220
0CC0
0000
0000
ENDCHAR

STARTCHAR Ca4a3
ENCODING 42147
SWIDTH 1000 0
DWIDTH 12 0
BBX 12 12 0 -2
BITMAP
0000
0000
0000
1100
1080
1040
0840
0A00
0400
0000
0000
0000
ENDCHAR

STARTCHAR Ca4a5
ENCODING 42149
SWIDTH 1000 0
DWIDTH 12 0
BBX 12 12 0 -2
BITMAP
0000
0100
00C0
0000
01C0
0620
0020
0020
0040
0180
0000
0000
ENDCHAR

STARTCHAR Ca4a7
ENCODING 42151
SWIDTH 1000 0
DWIDTH 12 0
BBX 12 12 0 -2
BITMAP
0000
0000
0200
0180
0000
01C0
0680
0100
0280
04E0
0000
0000
ENDCHAR

STARTCHAR Ca4a9
ENCODING 42153
SWIDTH 1000 0
DWIDTH 12 0
BBX 12 12 0 -2
BITMAP
0000
0000
0400
0740
1C20
0420
0780
0C40
1440
0D80
0000
0000
ENDCHAR

STARTCHAR Ca4c3
ENCODING 42179
SWIDTH 1000 0
DWIDTH 12 0
BBX 12 12 0 -2
BITMAP
0000
0000
0000
0780
1840
0040
0080
0700
0000
0000
0000
0000
ENDCHAR

STARTCHAR Ca4e3
ENCODING 42211
SWIDTH 1000 0
DWIDTH 12 0
BBX 12 12 0 -2
BITMAP
0000
0000
0100
0880
05C0
0620
1A20
02C0
0100
0100
0000
0000
ENDCHAR

STARTCHAR Ca4e5
ENCODING 42213
SWIDTH 1000 0
DWIDTH 12 0
BBX 12 12 0 -2
BITMAP
0000
0000
0080
0880
09C0
0AA0
0CA0
09C0
0080
0100
0000
0000
ENDCHAR

STARTCHAR Ca4e7
ENCODING 42215
SWIDTH 1000 0
DWIDTH 12 0
BBX 12 12 0 -2
BITMAP
0000
0000
0080
0080
00E0
0080
0080
0380
04C0
0320
0000
0000
ENDCHAR

STARTCHAR Ca4ee
ENCODING 42222
SWIDTH 1000 0
DWIDTH 12 0
BBX 12 12 0 -2
BITMAP
0000
0000
0400
0400
1DC0
0620
0420
0C20
14C0
0400
0000
0000
ENDCHAR

STARTCHAR Ca5a1
ENCODING 42401
SWIDTH 1000 0
DWIDTH 12 0
BBX 12 12 0 -2
BITMAP
0000
0000
0FE0
0020
0140
0180
0100
0100
0200
0000
0000
0000
ENDCHAR

STARTCHAR Ca5a3
ENCODING 42403
SWIDTH 1000 0
DWIDTH 12 0
BBX 12 12 0 -2
BITMAP
0000
0000
0020
0040
0080
0180
0680
0080
0080
0080
0000
0000
ENDCHAR

STARTCHAR Ca5a5
ENCODING 42405
SWIDTH 1000 0
DWIDTH 12 0
BBX 12 12 0 -2
BITMAP
0000
0000
0100
0100
0FE0
0820
0820
0020
0040
0180
0000
0000
ENDCHAR

STARTCHAR Ca5a7
ENCODING 42407
SWIDTH 1000 0
DWIDTH 12 0
BBX 12 12 0 -2
BITMAP
0000
0000
0000
1F80
0400
0400
0400
3FC0
0000
0000
0000
0000
ENDCHAR

STARTCHAR Ca5a9
ENCODING 42409
SWIDTH 1000 0
DWIDTH 12 0
BBX 12 12 0 -2
BITMAP
0000
0000
0040
0040
0FE0
0140
0140
0240
0440
08C0
0000
0000
ENDCHAR

STARTCHAR Ca5c3
ENCODING 42435
SWIDTH 1000 0
DWIDTH 12 0
BBX 12 12 0 -2
BITMAP
0000
0000
0420
1220
0A40
0840
0080
0300
0C00
0000
0000
0000
ENDCHAR

STARTCHAR Ca5e3
ENCODING 42467
SWIDTH 1000 0
DWIDTH 12 0
BBX 12 12 0 -2
BITMAP
0000
0000
0400
0400
03E0
1E20
0240
0100
0100
0100
0000
0000
ENDCHAR

STARTCHAR Ca5e5
ENCODING 42469
SWIDTH 1000 0
DWIDTH 12 0
BBX 12 12 0 -2
BITMAP
0000
0000
0000
1F00
0100
0100
0100
3FC0
0000
0000
0000
0000
ENDCHAR

STARTCHAR Ca5e7
ENCODING 42471
SWIDTH 1000 0
DWIDTH 12 0
BBX 12 12 0 -2
BITMAP
0000
0000
0000
0FC0
0040
07C0
0040
0FC0
0000
0000
0000
0000
ENDCHAR

STARTCHAR Ca5ee
ENCODING 42478
SWIDTH 1000 0
DWIDTH 12 0
BBX 12 12 0 -2
BITMAP
0000
0000
0FE0
0820
0820
0040
0040
0080
0300
0000
0000
0000
ENDCHAR

STARTCHAR Ca5f5
ENCODING 42485
SWIDTH 1000 0
DWIDTH 12 0
BBX 12 12 0 -2
BITMAP
0000
0000
0100
0100
07E0
0120
0120
0220
02A0
0440
0000
0000
ENDCHAR

STARTCHAR Ca5f6
ENCODING 42486
SWIDTH 1000 0
DWIDTH 12 0
BBX 12 12 0 -2
BITMAP
0000
0000
0400
0400
07E0
0880
1080
0080
0100
0600
0000
0000
ENDCHAR
ENDFONT
